{
    "asset": {
        "generator": "COLLADA2GLTF",
        "version": "2.0"
    },
    "scenes": [
        {
            "nodes": [
                4,
                2,
                0
            ]
        }
    ],
    "scene": 0,
    "nodes": [
        {
            "children": [
                1
            ],
            "name": "Instance-Def-Lasta_2_2"
        },
        {
            "mesh": 0,
            "name": "b036b56b-b5fd-4732-9686-9e7c94b8c4eb"
        },
        {
            "children": [
                3
            ],
            "name": "Instance-Def-Lasta_2_1"
        },
        {
            "mesh": 1,
            "name": "a87675cb-e0dd-443d-89dc-90cbab1ebb71"
        },
        {
            "children": [
                8,
                7,
                6,
                5
            ],
            "matrix": [
                1.0,
                0.0,
                0.0,
                0.0,
                0.0,
                0.0,
                -1.0,
                0.0,
                0.0,
                1.0,
                0.0,
                0.0,
                0.0,
                0.0,
                0.0,
                1.0
            ],
            "name": "Z_UP"
        },
        {
            "matrix": [
                0.0,
                1.0,
                0.0,
                0.0,
                0.0,
                0.0,
                1.0,
                0.0,
                1.0,
                0.0,
                0.0,
                0.0,
                0.5063769817352295,
                0.697788417339325,
                0.5854660272598267,
                1.0
            ],
            "camera": 0,
            "name": "View-Right"
        },
        {
            "matrix": [
                1.0,
                0.0,
                0.0,
                0.0,
                0.0,
                0.0,
                1.0,
                0.0,
                0.0,
                -1.0,
                0.0,
                0.0,
                0.0385202094912529,
                0.578496515750885,
                0.5895825624465942,
                1.0
            ],
            "camera": 1,
            "name": "View-Front"
        },
        {
            "matrix": [
                1.0,
                0.0,
                0.0,
                0.0,
                0.0,
                1.0,
                0.0,
                0.0,
                0.0,
                0.0,
                1.0,
                0.0,
                0.0385202094912529,
                0.7449170351028442,
                0.7074939012527466,
                1.0
            ],
            "camera": 2,
            "name": "View-Top"
        },
        {
            "matrix": [
                0.8660320043563843,
                0.49998900294303896,
                0.0,
                0.0,
                -0.24999600648880009,
                0.4330179989337921,
                0.8660240173339844,
                0.0,
                0.4330019950866699,
                -0.7500039935112,
                0.5000029802322388,
                0.0,
                0.5392386317253113,
                -0.12237809598445893,
                1.167779326438904,
                1.0
            ],
            "camera": 3,
            "name": "View-Perspective"
        }
    ],
    "cameras": [
        {
            "orthographic": {
                "xmag": 1.0,
                "ymag": 0.4932331144809723,
                "zfar": 0.8392407894134522,
                "znear": 0.0963820293545723
            },
            "type": "orthographic",
            "name": "Camera-Right"
        },
        {
            "orthographic": {
                "xmag": 1.0,
                "ymag": 0.4932331144809723,
                "zfar": 0.2985249161720276,
                "znear": 0.03428389132022858
            },
            "type": "orthographic",
            "name": "Camera-Front"
        },
        {
            "orthographic": {
                "xmag": 1.0,
                "ymag": 0.4947367608547211,
                "zfar": 0.2115091532468796,
                "znear": 0.024290625005960466
            },
            "type": "orthographic",
            "name": "Camera-Top"
        },
        {
            "perspective": {
                "yfov": 0.446907103061676,
                "zfar": 1.449546456336975,
                "znear": 0.8687329292297363
            },
            "type": "perspective",
            "name": "Camera-Perspective"
        }
    ],
    "meshes": [
        {
            "primitives": [
                {
                    "attributes": {
                        "NORMAL": 1,
                        "POSITION": 2
                    },
                    "indices": 0,
                    "mode": 4,
                    "material": 0
                }
            ],
            "name": "mesh-b036b56b-b5fd-4732-9686-9e7c94b8c4eb"
        },
        {
            "primitives": [
                {
                    "attributes": {
                        "NORMAL": 4,
                        "POSITION": 5
                    },
                    "indices": 3,
                    "mode": 4,
                    "material": 1
                }
            ],
            "name": "mesh-a87675cb-e0dd-443d-89dc-90cbab1ebb71"
        }
    ],
    "accessors": [
        {
            "bufferView": 0,
            "byteOffset": 0,
            "componentType": 5123,
            "count": 13446,
            "max": [
                3405
            ],
            "min": [
                0
            ],
            "type": "SCALAR"
        },
        {
            "bufferView": 1,
            "byteOffset": 0,
            "componentType": 5126,
            "count": 3406,
            "max": [
                1.0,
                0.9996569752693176,
                0.9986349940299988
            ],
            "min": [
                -1.0,
                -0.9996569752693176,
                -0.9986299872398377
            ],
            "type": "VEC3"
        },
        {
            "bufferView": 1,
            "byteOffset": 40872,
            "componentType": 5126,
            "count": 3406,
            "max": [
                0.3394967913627625,
                0.2981462478637696,
                0.3957533836364746
            ],
            "min": [
                -0.33574679493904116,
                0.1279921680688858,
                0.15557730197906498
            ],
            "type": "VEC3"
        },
        {
            "bufferView": 0,
            "byteOffset": 26892,
            "componentType": 5123,
            "count": 36,
            "max": [
                23
            ],
            "min": [
                0
            ],
            "type": "SCALAR"
        },
        {
            "bufferView": 1,
            "byteOffset": 81744,
            "componentType": 5126,
            "count": 24,
            "max": [
                0.9510570168495178,
                0.9998310208320618,
                0.9998310208320618
            ],
            "min": [
                -0.9510570168495178,
                -0.9998310208320618,
                -0.9998310208320618
            ],
            "type": "VEC3"
        },
        {
            "bufferView": 1,
            "byteOffset": 82032,
            "componentType": 5126,
            "count": 24,
            "max": [
                0.01061650738120079,
                0.28922879695892336,
                0.3411005437374115
            ],
            "min": [
                -0.01061650738120079,
                0.2640955150127411,
                0.22552552819252018
            ],
            "type": "VEC3"
        }
    ],
    "materials": [
        {
            "pbrMetallicRoughness": {
                "baseColorFactor": [
                    1.0,
                    1.0,
                    1.0,
                    0.0
                ],
                "metallicFactor": 0.0
            },
            "name": "fx-a0000000-0000-0000-0000-000000000000"
        },
        {
            "pbrMetallicRoughness": {
                "baseColorFactor": [
                    1.0,
                    1.0,
                    1.0,
                    0.0
                ],
                "metallicFactor": 0.0
            },
            "name": "fx-a0000000-0000-0000-0000-000000000000"
        }
    ],
    "bufferViews": [
        {
            "buffer": 0,
            "byteOffset": 82320,
            "byteLength": 26964,
            "target": 34963
        },
        {
            "buffer": 0,
            "byteOffset": 0,
            "byteLength": 82320,
            "byteStride": 12,
            "target": 34962
        }
    ],
    "buffers": [
        {
            "byteLength": 109284,
            "uri": "data:application/octet-stream;base64,"
        }
    ]
}
