{
    "asset": {
        "generator": "COLLADA2GLTF",
        "version": "2.0"
    },
    "scenes": [
        {
            "nodes": [
                0
            ]
        }
    ],
    "scene": 0,
    "nodes": [
        {
            "children": [
                10,
                9,
                8,
                7,
                6,
                5,
                4,
                3,
                2,
                1
            ],
            "matrix": [
                1.0,
                0.0,
                0.0,
                0.0,
                0.0,
                0.0,
                -1.0,
                0.0,
                0.0,
                1.0,
                0.0,
                0.0,
                0.0,
                0.0,
                0.0,
                1.0
            ],
            "name": "Z_UP"
        },
        {
            "mesh": 0,
            "name": "e4abe6da-03b5-441f-858e-835741170aeb"
        },
        {
            "mesh": 1,
            "name": "ad12fef1-16ac-4150-a086-7b5c33fdd96a"
        },
        {
            "mesh": 2,
            "name": "e5976d80-496e-467c-9a5f-52177df6a52c"
        },
        {
            "mesh": 3,
            "name": "bf4494ff-12ec-469e-82e5-ad0caf9da71b"
        },
        {
            "mesh": 4,
            "name": "aa2e811e-5623-46cf-a7bc-fe30fb3a2fab"
        },
        {
            "mesh": 5,
            "name": "ecba147c-57f8-4585-aea4-67734eff73ea"
        },
        {
            "matrix": [
                0.0,
                1.0,
                0.0,
                0.0,
                0.0,
                0.0,
                1.0,
                0.0,
                1.0,
                0.0,
                0.0,
                0.0,
                0.2913932800292969,
                0.0,
                0.21127238869667057,
                1.0
            ],
            "camera": 0,
            "name": "View-Right"
        },
        {
            "matrix": [
                1.0,
                0.0,
                0.0,
                0.0,
                0.0,
                0.0,
                1.0,
                0.0,
                0.0,
                -1.0,
                0.0,
                0.0,
                0.0,
                -0.2925892472267151,
                0.21127238869667057,
                1.0
            ],
            "camera": 1,
            "name": "View-Front"
        },
        {
            "matrix": [
                1.0,
                0.0,
                0.0,
                0.0,
                0.0,
                1.0,
                0.0,
                0.0,
                0.0,
                0.0,
                1.0,
                0.0,
                0.0,
                0.0,
                0.5040414929389954,
                1.0
            ],
            "camera": 2,
            "name": "View-Top"
        },
        {
            "matrix": [
                0.8660320043563843,
                0.49998900294303896,
                0.0,
                0.0,
                -0.24999600648880009,
                0.4330179989337921,
                0.8660240173339844,
                0.0,
                0.4330019950866699,
                -0.7500039935112,
                0.5000029802322388,
                0.0,
                0.6350845694541931,
                -1.03078031539917,
                0.9017826318740844,
                1.0
            ],
            "camera": 3,
            "name": "View-Perspective"
        }
    ],
    "cameras": [
        {
            "orthographic": {
                "xmag": 1.0,
                "ymag": 0.4932331144809723,
                "zfar": 0.524359941482544,
                "znear": 0.05836967378854752
            },
            "type": "orthographic",
            "name": "Camera-Right"
        },
        {
            "orthographic": {
                "xmag": 1.0,
                "ymag": 0.4932331144809723,
                "zfar": 0.5269479751586914,
                "znear": 0.05817323923110962
            },
            "type": "orthographic",
            "name": "Camera-Front"
        },
        {
            "orthographic": {
                "xmag": 1.0,
                "ymag": 0.4947367608547211,
                "zfar": 0.5430227518081665,
                "znear": 0.05946016311645508
            },
            "type": "orthographic",
            "name": "Camera-Top"
        },
        {
            "perspective": {
                "yfov": 0.446907103061676,
                "zfar": 1.7765636444091797,
                "znear": 1.0257534980773926
            },
            "type": "perspective",
            "name": "Camera-Perspective"
        }
    ],
    "meshes": [
        {
            "primitives": [
                {
                    "attributes": {
                        "NORMAL": 1,
                        "POSITION": 2
                    },
                    "indices": 0,
                    "mode": 4,
                    "material": 0
                }
            ],
            "name": "mesh-e4abe6da-03b5-441f-858e-835741170aeb"
        },
        {
            "primitives": [
                {
                    "attributes": {
                        "NORMAL": 4,
                        "POSITION": 5
                    },
                    "indices": 3,
                    "mode": 4,
                    "material": 1
                }
            ],
            "name": "mesh-ad12fef1-16ac-4150-a086-7b5c33fdd96a"
        },
        {
            "primitives": [
                {
                    "attributes": {
                        "NORMAL": 7,
                        "POSITION": 8
                    },
                    "indices": 6,
                    "mode": 4,
                    "material": 2
                }
            ],
            "name": "mesh-e5976d80-496e-467c-9a5f-52177df6a52c"
        },
        {
            "primitives": [
                {
                    "attributes": {
                        "NORMAL": 10,
                        "POSITION": 11
                    },
                    "indices": 9,
                    "mode": 4,
                    "material": 3
                }
            ],
            "name": "mesh-bf4494ff-12ec-469e-82e5-ad0caf9da71b"
        },
        {
            "primitives": [
                {
                    "attributes": {
                        "NORMAL": 13,
                        "POSITION": 14
                    },
                    "indices": 12,
                    "mode": 4,
                    "material": 4
                }
            ],
            "name": "mesh-aa2e811e-5623-46cf-a7bc-fe30fb3a2fab"
        },
        {
            "primitives": [
                {
                    "attributes": {
                        "NORMAL": 16,
                        "POSITION": 17
                    },
                    "indices": 15,
                    "mode": 4,
                    "material": 5
                }
            ],
            "name": "mesh-ecba147c-57f8-4585-aea4-67734eff73ea"
        }
    ],
    "accessors": [
        {
            "bufferView": 0,
            "byteOffset": 0,
            "componentType": 5123,
            "count": 720,
            "max": [
                247
            ],
            "min": [
                0
            ],
            "type": "SCALAR"
        },
        {
            "bufferView": 1,
            "byteOffset": 0,
            "componentType": 5126,
            "count": 248,
            "max": [
                1.0,
                1.0,
                1.0
            ],
            "min": [
                -1.0,
                -1.0,
                -1.0
            ],
            "type": "VEC3"
        },
        {
            "bufferView": 1,
            "byteOffset": 2976,
            "componentType": 5126,
            "count": 248,
            "max": [
                -0.18027958273887638,
                -0.1811426281929016,
                0.010000000707805157
            ],
            "min": [
                -0.21027958393096925,
                -0.2111426293849945,
                -9.195394969348605e-16
            ],
            "type": "VEC3"
        },
        {
            "bufferView": 0,
            "byteOffset": 1440,
            "componentType": 5123,
            "count": 6816,
            "max": [
                2139
            ],
            "min": [
                0
            ],
            "type": "SCALAR"
        },
        {
            "bufferView": 1,
            "byteOffset": 5952,
            "componentType": 5126,
            "count": 2140,
            "max": [
                1.0,
                1.0,
                1.0
            ],
            "min": [
                -1.0,
                -1.0,
                -1.0
            ],
            "type": "VEC3"
        },
        {
            "bufferView": 1,
            "byteOffset": 31632,
            "componentType": 5126,
            "count": 2140,
            "max": [
                0.0161698367446661,
                0.0161698367446661,
                0.3800165355205536
            ],
            "min": [
                -0.0161698367446661,
                -0.0161698367446661,
                0.3250165283679962
            ],
            "type": "VEC3"
        },
        {
            "bufferView": 0,
            "byteOffset": 15072,
            "componentType": 5123,
            "count": 4242,
            "max": [
                1369
            ],
            "min": [
                0
            ],
            "type": "SCALAR"
        },
        {
            "bufferView": 1,
            "byteOffset": 57312,
            "componentType": 5126,
            "count": 1370,
            "max": [
                1.0,
                1.0,
                1.0
            ],
            "min": [
                -1.0,
                -1.0,
                -1.0
            ],
            "type": "VEC3"
        },
        {
            "bufferView": 1,
            "byteOffset": 73752,
            "componentType": 5126,
            "count": 1370,
            "max": [
                0.0608537420630455,
                0.1065136343240738,
                0.4225447475910187
            ],
            "min": [
                -0.0608537420630455,
                -0.10941633582115174,
                0.365016520023346
            ],
            "type": "VEC3"
        },
        {
            "bufferView": 0,
            "byteOffset": 23556,
            "componentType": 5123,
            "count": 720,
            "max": [
                247
            ],
            "min": [
                0
            ],
            "type": "SCALAR"
        },
        {
            "bufferView": 1,
            "byteOffset": 90192,
            "componentType": 5126,
            "count": 248,
            "max": [
                1.0,
                1.0,
                1.0
            ],
            "min": [
                -1.0,
                -1.0,
                -1.0
            ],
            "type": "VEC3"
        },
        {
            "bufferView": 1,
            "byteOffset": 93168,
            "componentType": 5126,
            "count": 248,
            "max": [
                0.21027958393096925,
                -0.1811426281929016,
                0.010000000707805157
            ],
            "min": [
                0.18027958273887638,
                -0.2111426293849945,
                -9.384941884702804e-16
            ],
            "type": "VEC3"
        },
        {
            "bufferView": 0,
            "byteOffset": 24996,
            "componentType": 5123,
            "count": 720,
            "max": [
                247
            ],
            "min": [
                0
            ],
            "type": "SCALAR"
        },
        {
            "bufferView": 1,
            "byteOffset": 96144,
            "componentType": 5126,
            "count": 248,
            "max": [
                1.0,
                1.0,
                1.0
            ],
            "min": [
                -1.0,
                -1.0,
                -1.0
            ],
            "type": "VEC3"
        },
        {
            "bufferView": 1,
            "byteOffset": 99120,
            "componentType": 5126,
            "count": 248,
            "max": [
                -0.18027958273887638,
                0.2111426293849945,
                0.010000000707805157
            ],
            "min": [
                -0.21027958393096925,
                0.1811426281929016,
                -9.384941884702804e-16
            ],
            "type": "VEC3"
        },
        {
            "bufferView": 0,
            "byteOffset": 26436,
            "componentType": 5123,
            "count": 9438,
            "max": [
                2497
            ],
            "min": [
                0
            ],
            "type": "SCALAR"
        },
        {
            "bufferView": 1,
            "byteOffset": 102096,
            "componentType": 5126,
            "count": 2498,
            "max": [
                1.0,
                1.0,
                1.0
            ],
            "min": [
                -1.0,
                -1.0,
                -1.0
            ],
            "type": "VEC3"
        },
        {
            "bufferView": 1,
            "byteOffset": 132072,
            "componentType": 5126,
            "count": 2498,
            "max": [
                0.21027958393096925,
                0.2111426293849945,
                0.3250165283679962
            ],
            "min": [
                -0.21027958393096925,
                -0.2111426293849945,
                -9.392143782336834e-16
            ],
            "type": "VEC3"
        }
    ],
    "materials": [
        {
            "pbrMetallicRoughness": {
                "baseColorFactor": [
                    1.0,
                    1.0,
                    1.0,
                    0.0
                ],
                "metallicFactor": 0.0
            },
            "name": "fx-a0000000-0000-0000-0000-000000000000"
        },
        {
            "pbrMetallicRoughness": {
                "baseColorFactor": [
                    1.0,
                    1.0,
                    1.0,
                    0.0
                ],
                "metallicFactor": 0.0
            },
            "name": "fx-a0000000-0000-0000-0000-000000000000"
        },
        {
            "pbrMetallicRoughness": {
                "baseColorFactor": [
                    1.0,
                    1.0,
                    1.0,
                    0.0
                ],
                "metallicFactor": 0.0
            },
            "name": "fx-a0000000-0000-0000-0000-000000000000"
        },
        {
            "pbrMetallicRoughness": {
                "baseColorFactor": [
                    1.0,
                    1.0,
                    1.0,
                    0.0
                ],
                "metallicFactor": 0.0
            },
            "name": "fx-a0000000-0000-0000-0000-000000000000"
        },
        {
            "pbrMetallicRoughness": {
                "baseColorFactor": [
                    1.0,
                    1.0,
                    1.0,
                    0.0
                ],
                "metallicFactor": 0.0
            },
            "name": "fx-a0000000-0000-0000-0000-000000000000"
        },
        {
            "pbrMetallicRoughness": {
                "baseColorFactor": [
                    1.0,
                    1.0,
                    1.0,
                    0.0
                ],
                "metallicFactor": 0.0
            },
            "name": "fx-a0000000-0000-0000-0000-000000000000"
        }
    ],
    "bufferViews": [
        {
            "buffer": 0,
            "byteOffset": 162048,
            "byteLength": 45312,
            "target": 34963
        },
        {
            "buffer": 0,
            "byteOffset": 0,
            "byteLength": 162048,
            "byteStride": 12,
            "target": 34962
        }
    ],
    "buffers": [
        {
            "byteLength": 207360,
            "uri": "data:application/octet-stream;base64,"
        }
    ]
}
