{
    "asset": {
        "generator": "COLLADA2GLTF",
        "version": "2.0"
    },
    "scenes": [
        {
            "nodes": [
                7,
                2,
                0
            ]
        }
    ],
    "scene": 0,
    "nodes": [
        {
            "children": [
                1
            ],
            "name": "Instance-Def-Untitled2"
        },
        {
            "mesh": 0,
            "name": "d5df6463-4145-42dc-bfe1-89221ad51f33"
        },
        {
            "children": [
                6,
                5,
                4,
                3
            ],
            "name": "Instance-Def-Untitled1"
        },
        {
            "mesh": 1,
            "name": "a5a9900f-4430-4701-8a87-f0c0c81fe9ef"
        },
        {
            "mesh": 2,
            "name": "b7c70eb9-ee7d-4090-8bd3-c0f147aba559"
        },
        {
            "mesh": 3,
            "name": "edd32c3e-4942-4fca-8efc-0a844514198a"
        },
        {
            "mesh": 4,
            "name": "a79471ac-03c3-4bf2-ae98-a50efd984d7a"
        },
        {
            "children": [
                11,
                10,
                9,
                8
            ],
            "matrix": [
                1.0,
                0.0,
                0.0,
                0.0,
                0.0,
                0.0,
                -1.0,
                0.0,
                0.0,
                1.0,
                0.0,
                0.0,
                0.0,
                0.0,
                0.0,
                1.0
            ],
            "name": "Z_UP"
        },
        {
            "matrix": [
                0.0,
                1.0,
                0.0,
                0.0,
                0.0,
                0.0,
                1.0,
                0.0,
                1.0,
                0.0,
                0.0,
                0.0,
                0.40870922803878786,
                0.25108209252357485,
                0.4149152636528015,
                1.0
            ],
            "camera": 0,
            "name": "View-Right"
        },
        {
            "matrix": [
                1.0,
                0.0,
                0.0,
                0.0,
                0.0,
                0.0,
                1.0,
                0.0,
                0.0,
                -1.0,
                0.0,
                0.0,
                0.11731593310832976,
                -0.12048893421888352,
                0.4149152636528015,
                1.0
            ],
            "camera": 1,
            "name": "View-Front"
        },
        {
            "matrix": [
                1.0,
                0.0,
                0.0,
                0.0,
                0.0,
                1.0,
                0.0,
                0.0,
                0.0,
                0.0,
                1.0,
                0.0,
                0.11731593310832976,
                0.25108209252357485,
                0.7075045704841614,
                1.0
            ],
            "camera": 2,
            "name": "View-Top"
        },
        {
            "matrix": [
                0.8660320043563843,
                0.49998900294303896,
                0.0,
                0.0,
                -0.24999600648880009,
                0.4330179989337921,
                0.8660240173339844,
                0.0,
                0.4330019950866699,
                -0.7500039935112,
                0.5000029802322388,
                0.0,
                1.4792672395706177,
                -1.173855543136597,
                1.323508620262146,
                1.0
            ],
            "camera": 3,
            "name": "View-Perspective"
        }
    ],
    "cameras": [
        {
            "orthographic": {
                "xmag": 1.0,
                "ymag": 0.4932331144809723,
                "zfar": 0.522700846195221,
                "znear": 0.06002921983599663
            },
            "type": "orthographic",
            "name": "Camera-Right"
        },
        {
            "orthographic": {
                "xmag": 1.0,
                "ymag": 0.4932331144809723,
                "zfar": 0.6665235161781311,
                "znear": 0.07654643803834915
            },
            "type": "orthographic",
            "name": "Camera-Front"
        },
        {
            "orthographic": {
                "xmag": 1.0,
                "ymag": 0.4947367608547211,
                "zfar": 0.5248461365699768,
                "znear": 0.060275599360466
            },
            "type": "orthographic",
            "name": "Camera-Top"
        },
        {
            "perspective": {
                "yfov": 0.446907103061676,
                "zfar": 2.535569429397583,
                "znear": 1.6977554559707642
            },
            "type": "perspective",
            "name": "Camera-Perspective"
        }
    ],
    "meshes": [
        {
            "primitives": [
                {
                    "attributes": {
                        "NORMAL": 1,
                        "POSITION": 2
                    },
                    "indices": 0,
                    "mode": 4,
                    "material": 0
                }
            ],
            "name": "mesh-d5df6463-4145-42dc-bfe1-89221ad51f33"
        },
        {
            "primitives": [
                {
                    "attributes": {
                        "NORMAL": 4,
                        "POSITION": 5
                    },
                    "indices": 3,
                    "mode": 4,
                    "material": 1
                }
            ],
            "name": "mesh-a5a9900f-4430-4701-8a87-f0c0c81fe9ef"
        },
        {
            "primitives": [
                {
                    "attributes": {
                        "NORMAL": 7,
                        "POSITION": 8
                    },
                    "indices": 6,
                    "mode": 4,
                    "material": 2
                }
            ],
            "name": "mesh-b7c70eb9-ee7d-4090-8bd3-c0f147aba559"
        },
        {
            "primitives": [
                {
                    "attributes": {
                        "NORMAL": 10,
                        "POSITION": 11
                    },
                    "indices": 9,
                    "mode": 4,
                    "material": 3
                }
            ],
            "name": "mesh-edd32c3e-4942-4fca-8efc-0a844514198a"
        },
        {
            "primitives": [
                {
                    "attributes": {
                        "NORMAL": 13,
                        "POSITION": 14
                    },
                    "indices": 12,
                    "mode": 4,
                    "material": 4
                }
            ],
            "name": "mesh-a79471ac-03c3-4bf2-ae98-a50efd984d7a"
        }
    ],
    "accessors": [
        {
            "bufferView": 0,
            "byteOffset": 0,
            "componentType": 5123,
            "count": 8802,
            "max": [
                2421
            ],
            "min": [
                0
            ],
            "type": "SCALAR"
        },
        {
            "bufferView": 1,
            "byteOffset": 0,
            "componentType": 5126,
            "count": 2422,
            "max": [
                1.0,
                1.0,
                1.0
            ],
            "min": [
                -1.0,
                -1.0,
                -1.0
            ],
            "type": "VEC3"
        },
        {
            "bufferView": 1,
            "byteOffset": 29064,
            "componentType": 5126,
            "count": 2422,
            "max": [
                0.13668209314346314,
                0.13724449276924134,
                0.2655754089355469
            ],
            "min": [
                -0.13668136298656465,
                -0.137240931391716,
                0.05431468412280083
            ],
            "type": "VEC3"
        },
        {
            "bufferView": 0,
            "byteOffset": 17604,
            "componentType": 5123,
            "count": 720,
            "max": [
                247
            ],
            "min": [
                0
            ],
            "type": "SCALAR"
        },
        {
            "bufferView": 1,
            "byteOffset": 58128,
            "componentType": 5126,
            "count": 248,
            "max": [
                1.0,
                1.0,
                1.0
            ],
            "min": [
                -1.0,
                -1.0,
                -1.0
            ],
            "type": "VEC3"
        },
        {
            "bufferView": 1,
            "byteOffset": 61104,
            "componentType": 5126,
            "count": 248,
            "max": [
                -0.18027958273887638,
                0.2111426293849945,
                0.010000000707805157
            ],
            "min": [
                -0.21027958393096925,
                0.1811426281929016,
                -9.384941884702804e-16
            ],
            "type": "VEC3"
        },
        {
            "bufferView": 0,
            "byteOffset": 19044,
            "componentType": 5123,
            "count": 720,
            "max": [
                247
            ],
            "min": [
                0
            ],
            "type": "SCALAR"
        },
        {
            "bufferView": 1,
            "byteOffset": 64080,
            "componentType": 5126,
            "count": 248,
            "max": [
                1.0,
                1.0,
                1.0
            ],
            "min": [
                -1.0,
                -1.0,
                -1.0
            ],
            "type": "VEC3"
        },
        {
            "bufferView": 1,
            "byteOffset": 67056,
            "componentType": 5126,
            "count": 248,
            "max": [
                -0.18027958273887638,
                -0.1811426281929016,
                0.010000000707805157
            ],
            "min": [
                -0.21027958393096925,
                -0.2111426293849945,
                -9.195717900659746e-16
            ],
            "type": "VEC3"
        },
        {
            "bufferView": 0,
            "byteOffset": 20484,
            "componentType": 5123,
            "count": 7950,
            "max": [
                2137
            ],
            "min": [
                0
            ],
            "type": "SCALAR"
        },
        {
            "bufferView": 1,
            "byteOffset": 70032,
            "componentType": 5126,
            "count": 2138,
            "max": [
                1.0,
                1.0,
                1.0
            ],
            "min": [
                -1.0,
                -1.0,
                -1.0
            ],
            "type": "VEC3"
        },
        {
            "bufferView": 1,
            "byteOffset": 95688,
            "componentType": 5126,
            "count": 2138,
            "max": [
                0.21027958393096925,
                0.2111426293849945,
                0.3250165283679962
            ],
            "min": [
                -0.21027958393096925,
                -0.2111426293849945,
                -9.392143782336834e-16
            ],
            "type": "VEC3"
        },
        {
            "bufferView": 0,
            "byteOffset": 36384,
            "componentType": 5123,
            "count": 720,
            "max": [
                247
            ],
            "min": [
                0
            ],
            "type": "SCALAR"
        },
        {
            "bufferView": 1,
            "byteOffset": 121344,
            "componentType": 5126,
            "count": 248,
            "max": [
                1.0,
                1.0,
                1.0
            ],
            "min": [
                -1.0,
                -1.0,
                -1.0
            ],
            "type": "VEC3"
        },
        {
            "bufferView": 1,
            "byteOffset": 124320,
            "componentType": 5126,
            "count": 248,
            "max": [
                0.21027958393096925,
                -0.1811426281929016,
                0.010000000707805157
            ],
            "min": [
                0.18027958273887638,
                -0.2111426293849945,
                -9.384941884702804e-16
            ],
            "type": "VEC3"
        }
    ],
    "materials": [
        {
            "pbrMetallicRoughness": {
                "baseColorFactor": [
                    1.0,
                    1.0,
                    1.0,
                    0.0
                ],
                "metallicFactor": 0.0
            },
            "name": "fx-a0000000-0000-0000-0000-000000000000"
        },
        {
            "pbrMetallicRoughness": {
                "baseColorFactor": [
                    1.0,
                    1.0,
                    1.0,
                    0.0
                ],
                "metallicFactor": 0.0
            },
            "name": "fx-a0000000-0000-0000-0000-000000000000"
        },
        {
            "pbrMetallicRoughness": {
                "baseColorFactor": [
                    1.0,
                    1.0,
                    1.0,
                    0.0
                ],
                "metallicFactor": 0.0
            },
            "name": "fx-a0000000-0000-0000-0000-000000000000"
        },
        {
            "pbrMetallicRoughness": {
                "baseColorFactor": [
                    1.0,
                    1.0,
                    1.0,
                    0.0
                ],
                "metallicFactor": 0.0
            },
            "name": "fx-a0000000-0000-0000-0000-000000000000"
        },
        {
            "pbrMetallicRoughness": {
                "baseColorFactor": [
                    1.0,
                    1.0,
                    1.0,
                    0.0
                ],
                "metallicFactor": 0.0
            },
            "name": "fx-a0000000-0000-0000-0000-000000000000"
        }
    ],
    "bufferViews": [
        {
            "buffer": 0,
            "byteOffset": 127296,
            "byteLength": 37824,
            "target": 34963
        },
        {
            "buffer": 0,
            "byteOffset": 0,
            "byteLength": 127296,
            "byteStride": 12,
            "target": 34962
        }
    ],
    "buffers": [
        {
            "byteLength": 165120,
            "uri": "data:application/octet-stream;base64,"
        }
    ]
}
