{
    "asset": {
        "generator": "COLLADA2GLTF",
        "version": "2.0"
    },
    "scenes": [
        {
            "nodes": [
                0
            ]
        }
    ],
    "scene": 0,
    "nodes": [
        {
            "children": [
                9,
                8,
                7,
                6,
                5,
                4,
                3,
                2,
                1
            ],
            "matrix": [
                1.0,
                0.0,
                0.0,
                0.0,
                0.0,
                0.0,
                -1.0,
                0.0,
                0.0,
                1.0,
                0.0,
                0.0,
                0.0,
                0.0,
                0.0,
                1.0
            ],
            "name": "Z_UP"
        },
        {
            "mesh": 0,
            "name": "fdd95ef0-b8d7-4610-a3ce-ced50cdc557f"
        },
        {
            "mesh": 1,
            "name": "add9a8d8-d6e0-46a8-bd81-4870c0d59521"
        },
        {
            "mesh": 2,
            "name": "a51153f6-8174-4a7d-b6a2-067b7f5ca849"
        },
        {
            "mesh": 3,
            "name": "ac52481a-ba44-42af-856b-cc21259352a7"
        },
        {
            "mesh": 4,
            "name": "a9b4845c-1026-4bf8-88d1-4cd87a25c9d3"
        },
        {
            "matrix": [
                0.0,
                1.0,
                0.0,
                0.0,
                0.0,
                0.0,
                1.0,
                0.0,
                1.0,
                0.0,
                0.0,
                0.0,
                -3.098745822906494,
                -0.4212951958179474,
                0.20582003891468049,
                1.0
            ],
            "camera": 0,
            "name": "View-Right"
        },
        {
            "matrix": [
                1.0,
                0.0,
                0.0,
                0.0,
                0.0,
                0.0,
                1.0,
                0.0,
                0.0,
                -1.0,
                0.0,
                0.0,
                -3.378019809722901,
                -0.7005820274353027,
                0.20582003891468049,
                1.0
            ],
            "camera": 1,
            "name": "View-Front"
        },
        {
            "matrix": [
                1.0,
                0.0,
                0.0,
                0.0,
                0.0,
                1.0,
                0.0,
                0.0,
                0.0,
                0.0,
                1.0,
                0.0,
                -3.378019809722901,
                -0.4212951958179474,
                0.4910335242748261,
                1.0
            ],
            "camera": 2,
            "name": "View-Top"
        },
        {
            "matrix": [
                0.8660320043563843,
                0.49998900294303896,
                0.0,
                0.0,
                -0.24999600648880009,
                0.4330179989337921,
                0.8660240173339844,
                0.0,
                0.4330019950866699,
                -0.7500039935112,
                0.5000029802322388,
                0.0,
                -2.8986103534698488,
                -1.2164556980133057,
                0.7764764428138733,
                1.0
            ],
            "camera": 3,
            "name": "View-Perspective"
        }
    ],
    "cameras": [
        {
            "orthographic": {
                "xmag": 1.0,
                "ymag": 0.4932331144809723,
                "zfar": 0.5084149241447449,
                "znear": 0.05007718503475189
            },
            "type": "orthographic",
            "name": "Camera-Right"
        },
        {
            "orthographic": {
                "xmag": 1.0,
                "ymag": 0.4932331144809723,
                "zfar": 0.5084377527236939,
                "znear": 0.05007981136441231
            },
            "type": "orthographic",
            "name": "Camera-Front"
        },
        {
            "orthographic": {
                "xmag": 1.0,
                "ymag": 0.4947367608547211,
                "zfar": 0.511615514755249,
                "znear": 0.05875613540410996
            },
            "type": "orthographic",
            "name": "Camera-Top"
        },
        {
            "perspective": {
                "yfov": 0.446907103061676,
                "zfar": 1.4530246257781985,
                "znear": 0.7324519753456116
            },
            "type": "perspective",
            "name": "Camera-Perspective"
        }
    ],
    "meshes": [
        {
            "primitives": [
                {
                    "attributes": {
                        "NORMAL": 1,
                        "POSITION": 2
                    },
                    "indices": 0,
                    "mode": 4,
                    "material": 0
                }
            ],
            "name": "mesh-fdd95ef0-b8d7-4610-a3ce-ced50cdc557f"
        },
        {
            "primitives": [
                {
                    "attributes": {
                        "NORMAL": 4,
                        "POSITION": 5
                    },
                    "indices": 3,
                    "mode": 4,
                    "material": 1
                }
            ],
            "name": "mesh-add9a8d8-d6e0-46a8-bd81-4870c0d59521"
        },
        {
            "primitives": [
                {
                    "attributes": {
                        "NORMAL": 7,
                        "POSITION": 8
                    },
                    "indices": 6,
                    "mode": 4,
                    "material": 2
                }
            ],
            "name": "mesh-a51153f6-8174-4a7d-b6a2-067b7f5ca849"
        },
        {
            "primitives": [
                {
                    "attributes": {
                        "NORMAL": 10,
                        "POSITION": 11
                    },
                    "indices": 9,
                    "mode": 4,
                    "material": 3
                }
            ],
            "name": "mesh-ac52481a-ba44-42af-856b-cc21259352a7"
        },
        {
            "primitives": [
                {
                    "attributes": {
                        "NORMAL": 13,
                        "POSITION": 14
                    },
                    "indices": 12,
                    "mode": 4,
                    "material": 4
                }
            ],
            "name": "mesh-a9b4845c-1026-4bf8-88d1-4cd87a25c9d3"
        }
    ],
    "accessors": [
        {
            "bufferView": 0,
            "byteOffset": 0,
            "componentType": 5123,
            "count": 2460,
            "max": [
                609
            ],
            "min": [
                0
            ],
            "type": "SCALAR"
        },
        {
            "bufferView": 1,
            "byteOffset": 0,
            "componentType": 5126,
            "count": 610,
            "max": [
                1.0,
                1.0,
                1.0
            ],
            "min": [
                -1.0,
                -1.0,
                -1.0
            ],
            "type": "VEC3"
        },
        {
            "bufferView": 1,
            "byteOffset": 7320,
            "componentType": 5126,
            "count": 610,
            "max": [
                -3.1764862537384039,
                -0.4137951731681824,
                0.29499003291130068
            ],
            "min": [
                -3.385529041290283,
                -0.6228382587432861,
                -2.4470180982179785e-16
            ],
            "type": "VEC3"
        },
        {
            "bufferView": 0,
            "byteOffset": 4920,
            "componentType": 5123,
            "count": 2454,
            "max": [
                606
            ],
            "min": [
                0
            ],
            "type": "SCALAR"
        },
        {
            "bufferView": 1,
            "byteOffset": 14640,
            "componentType": 5126,
            "count": 607,
            "max": [
                1.0,
                1.0,
                1.0
            ],
            "min": [
                -1.0,
                -1.0,
                -1.0
            ],
            "type": "VEC3"
        },
        {
            "bufferView": 1,
            "byteOffset": 21924,
            "componentType": 5126,
            "count": 607,
            "max": [
                -3.3705105781555177,
                -0.2197520881891251,
                0.29499003291130068
            ],
            "min": [
                -3.579553842544556,
                -0.42879518866539,
                -2.495707404910727e-16
            ],
            "type": "VEC3"
        },
        {
            "bufferView": 0,
            "byteOffset": 9828,
            "componentType": 5123,
            "count": 2442,
            "max": [
                603
            ],
            "min": [
                0
            ],
            "type": "SCALAR"
        },
        {
            "bufferView": 1,
            "byteOffset": 29208,
            "componentType": 5126,
            "count": 604,
            "max": [
                1.0,
                1.0,
                1.0
            ],
            "min": [
                -1.0,
                -1.0,
                -1.0
            ],
            "type": "VEC3"
        },
        {
            "bufferView": 1,
            "byteOffset": 36456,
            "componentType": 5126,
            "count": 604,
            "max": [
                -3.1764862537384039,
                -0.2197520881891251,
                0.29499003291130068
            ],
            "min": [
                -3.385529041290283,
                -0.42879518866539,
                -2.464017784771576e-16
            ],
            "type": "VEC3"
        },
        {
            "bufferView": 0,
            "byteOffset": 14712,
            "componentType": 5123,
            "count": 528,
            "max": [
                183
            ],
            "min": [
                0
            ],
            "type": "SCALAR"
        },
        {
            "bufferView": 1,
            "byteOffset": 43704,
            "componentType": 5126,
            "count": 184,
            "max": [
                1.0,
                1.0,
                1.0
            ],
            "min": [
                -1.0,
                -1.0,
                -1.0
            ],
            "type": "VEC3"
        },
        {
            "bufferView": 1,
            "byteOffset": 45912,
            "componentType": 5126,
            "count": 184,
            "max": [
                -3.352707386016846,
                -0.3962951898574829,
                0.41164007782936098
            ],
            "min": [
                -3.40270733833313,
                -0.4462951421737671,
                0.29499003291130068
            ],
            "type": "VEC3"
        },
        {
            "bufferView": 0,
            "byteOffset": 15768,
            "componentType": 5123,
            "count": 2604,
            "max": [
                652
            ],
            "min": [
                0
            ],
            "type": "SCALAR"
        },
        {
            "bufferView": 1,
            "byteOffset": 48120,
            "componentType": 5126,
            "count": 653,
            "max": [
                1.0,
                1.0,
                1.0
            ],
            "min": [
                -1.0,
                -1.0,
                -1.0
            ],
            "type": "VEC3"
        },
        {
            "bufferView": 1,
            "byteOffset": 55956,
            "componentType": 5126,
            "count": 653,
            "max": [
                -3.3705105781555177,
                -0.4137951731681824,
                0.2957607805728913
            ],
            "min": [
                -3.579553842544556,
                -0.6228382587432861,
                -2.487565830100837e-16
            ],
            "type": "VEC3"
        }
    ],
    "materials": [
        {
            "pbrMetallicRoughness": {
                "baseColorFactor": [
                    1.0,
                    1.0,
                    1.0,
                    0.0
                ],
                "metallicFactor": 0.0
            },
            "name": "fx-a0000000-0000-0000-0000-000000000000"
        },
        {
            "pbrMetallicRoughness": {
                "baseColorFactor": [
                    1.0,
                    1.0,
                    1.0,
                    0.0
                ],
                "metallicFactor": 0.0
            },
            "name": "fx-a0000000-0000-0000-0000-000000000000"
        },
        {
            "pbrMetallicRoughness": {
                "baseColorFactor": [
                    1.0,
                    1.0,
                    1.0,
                    0.0
                ],
                "metallicFactor": 0.0
            },
            "name": "fx-a0000000-0000-0000-0000-000000000000"
        },
        {
            "pbrMetallicRoughness": {
                "baseColorFactor": [
                    1.0,
                    1.0,
                    1.0,
                    0.0
                ],
                "metallicFactor": 0.0
            },
            "name": "fx-a0000000-0000-0000-0000-000000000000"
        },
        {
            "pbrMetallicRoughness": {
                "baseColorFactor": [
                    1.0,
                    1.0,
                    1.0,
                    0.0
                ],
                "metallicFactor": 0.0
            },
            "name": "fx-a0000000-0000-0000-0000-000000000000"
        }
    ],
    "bufferViews": [
        {
            "buffer": 0,
            "byteOffset": 63792,
            "byteLength": 20976,
            "target": 34963
        },
        {
            "buffer": 0,
            "byteOffset": 0,
            "byteLength": 63792,
            "byteStride": 12,
            "target": 34962
        }
    ],
    "buffers": [
        {
            "byteLength": 84768,
            "uri": "data:application/octet-stream;base64,"
        }
    ]
}
