{
    "asset": {
        "generator": "COLLADA2GLTF",
        "version": "2.0"
    },
    "scenes": [
        {
            "nodes": [
                0
            ]
        }
    ],
    "scene": 0,
    "nodes": [
        {
            "children": [
                5,
                4,
                3,
                2,
                1
            ],
            "matrix": [
                1.0,
                0.0,
                0.0,
                0.0,
                0.0,
                0.0,
                -1.0,
                0.0,
                0.0,
                1.0,
                0.0,
                0.0,
                0.0,
                0.0,
                0.0,
                1.0
            ],
            "name": "Z_UP"
        },
        {
            "mesh": 0,
            "name": "a29a83f1-e4cf-40df-aa68-db35fab985a2"
        },
        {
            "matrix": [
                0.0,
                1.0,
                0.0,
                0.0,
                0.0,
                0.0,
                1.0,
                0.0,
                1.0,
                0.0,
                0.0,
                0.0,
                0.5554358959197998,
                0.009915116243064404,
                0.4497123062610626,
                1.0
            ],
            "camera": 0,
            "name": "View-Right"
        },
        {
            "matrix": [
                1.0,
                0.0,
                0.0,
                0.0,
                0.0,
                0.0,
                1.0,
                0.0,
                0.0,
                -1.0,
                0.0,
                0.0,
                0.001138939056545496,
                -0.37095701694488528,
                0.4497123062610626,
                1.0
            ],
            "camera": 1,
            "name": "View-Front"
        },
        {
            "matrix": [
                1.0,
                0.0,
                0.0,
                0.0,
                0.0,
                1.0,
                0.0,
                0.0,
                0.0,
                0.0,
                1.0,
                0.0,
                0.001138939056545496,
                0.009915116243064404,
                0.4978619515895844,
                1.0
            ],
            "camera": 2,
            "name": "View-Top"
        },
        {
            "matrix": [
                0.8660320043563843,
                0.49998900294303896,
                0.0,
                0.0,
                -0.24999600648880009,
                0.4330179989337921,
                0.8660240173339844,
                0.0,
                0.4330019950866699,
                -0.7500039935112,
                0.5000029802322388,
                0.0,
                0.6236881613731384,
                -1.0684034824371338,
                1.1685912609100342,
                1.0
            ],
            "camera": 3,
            "name": "View-Perspective"
        }
    ],
    "cameras": [
        {
            "orthographic": {
                "xmag": 1.0,
                "ymag": 0.4932331144809723,
                "zfar": 0.9942969083786012,
                "znear": 0.11418934911489488
            },
            "type": "orthographic",
            "name": "Camera-Right"
        },
        {
            "orthographic": {
                "xmag": 1.0,
                "ymag": 0.4932331144809723,
                "zfar": 0.6833441257476807,
                "znear": 0.0783369317650795
            },
            "type": "orthographic",
            "name": "Camera-Front"
        },
        {
            "orthographic": {
                "xmag": 1.0,
                "ymag": 0.4947367608547211,
                "zfar": 0.08726778626441956,
                "znear": 0.008548853918910027
            },
            "type": "orthographic",
            "name": "Camera-Top"
        },
        {
            "perspective": {
                "yfov": 0.446907103061676,
                "zfar": 1.8533034324645997,
                "znear": 1.0298141241073609
            },
            "type": "perspective",
            "name": "Camera-Perspective"
        }
    ],
    "meshes": [
        {
            "primitives": [
                {
                    "attributes": {
                        "NORMAL": 1,
                        "POSITION": 2
                    },
                    "indices": 0,
                    "mode": 4,
                    "material": 0
                }
            ],
            "name": "mesh-a29a83f1-e4cf-40df-aa68-db35fab985a2"
        }
    ],
    "accessors": [
        {
            "bufferView": 0,
            "byteOffset": 0,
            "componentType": 5123,
            "count": 12105,
            "max": [
                3400
            ],
            "min": [
                0
            ],
            "type": "SCALAR"
        },
        {
            "bufferView": 1,
            "byteOffset": 0,
            "componentType": 5126,
            "count": 3401,
            "max": [
                1.0,
                1.0,
                1.0
            ],
            "min": [
                -1.0,
                -1.0,
                -1.0
            ],
            "type": "VEC3"
        },
        {
            "bufferView": 1,
            "byteOffset": 40812,
            "componentType": 5126,
            "count": 3401,
            "max": [
                0.40113896131515505,
                0.28476575016975405,
                0.4844587743282318
            ],
            "min": [
                -0.3988610804080963,
                -0.2649354040622711,
                0.4149682521820069
            ],
            "type": "VEC3"
        }
    ],
    "materials": [
        {
            "pbrMetallicRoughness": {
                "baseColorFactor": [
                    1.0,
                    1.0,
                    1.0,
                    0.0
                ],
                "metallicFactor": 0.0
            },
            "name": "fx-a0000000-0000-0000-0000-000000000000"
        }
    ],
    "bufferViews": [
        {
            "buffer": 0,
            "byteOffset": 81624,
            "byteLength": 24210,
            "target": 34963
        },
        {
            "buffer": 0,
            "byteOffset": 0,
            "byteLength": 81624,
            "byteStride": 12,
            "target": 34962
        }
    ],
    "buffers": [
        {
            "byteLength": 105834,
            "uri": "data:application/octet-stream;base64,"
        }
    ]
}
